<?xml version="1.0" standalone="no"?>
<!DOCTYPE svg PUBLIC "-//W3C//DTD SVG 20010904//EN"
 "http://www.w3.org/TR/2001/REC-SVG-20010904/DTD/svg10.dtd">
<svg version="1.0" xmlns="http://www.w3.org/2000/svg"
 width="413.000000pt" height="108.000000pt" viewBox="0 0 413.000000 108.000000"
 preserveAspectRatio="xMidYMid meet">

<g transform="translate(0.000000,108.000000) scale(0.100000,-0.100000)"
fill="#000000" stroke="none">
<path d="M50 575 c0 -248 1 -255 20 -255 19 0 20 7 20 230 l0 230 465 0 465 0
0 25 0 25 -485 0 -485 0 0 -255z m950 235 c0 -7 -160 -10 -460 -10 l-460 0 0
-230 c0 -147 -4 -230 -10 -230 -6 0 -10 87 -10 240 l0 240 470 0 c307 0 470
-3 470 -10z"/>
<path d="M1375 798 c4 -18 28 -109 55 -203 26 -93 62 -225 80 -292 l34 -123
77 0 77 0 42 153 c24 83 46 166 51 182 15 56 27 100 44 160 9 33 22 82 29 108
l13 48 -75 -3 -75 -3 -22 -85 c-48 -178 -65 -237 -74 -261 l-9 -24 -10 25 c-5
14 -17 52 -26 85 -9 33 -29 105 -45 160 l-29 100 -72 3 -72 3 7 -33z"/>
<path d="M2064 803 c-3 -15 -42 -158 -86 -318 -44 -159 -81 -294 -82 -300 -1
-9 130 -9 145 1 4 2 10 22 14 44 l7 40 84 0 84 0 12 -45 c8 -28 18 -45 28 -46
30 -2 125 3 128 6 3 3 -128 483 -162 595 l-13 45 -76 3 c-76 3 -76 3 -83 -25z
m109 -325 l15 -58 -39 0 c-42 0 -44 2 -30 46 5 16 12 42 16 58 8 38 20 24 38
-46z"/>
<path d="M2512 534 l3 -296 33 -29 32 -29 166 0 166 0 28 30 c15 16 30 46 34
67 3 21 6 154 6 296 l0 257 -75 0 -75 0 0 -255 0 -255 -85 0 -85 0 0 255 0
255 -76 0 -75 0 3 -296z"/>
<path d="M3120 505 l0 -325 195 0 195 0 0 70 0 70 -125 0 -125 0 0 255 0 255
-70 0 -70 0 0 -325z"/>
<path d="M3642 758 l3 -73 78 -3 77 -3 0 -249 0 -250 75 0 75 0 0 250 0 250
80 0 80 0 0 75 0 75 -235 0 -236 0 3 -72z"/>
<path d="M174 701 c-2 -2 -4 -121 -4 -263 l0 -258 485 0 485 0 0 259 0 259
-22 6 c-25 6 -937 3 -944 -3z m951 -261 l0 -245 -467 -3 -468 -2 0 250 0 250
468 -2 467 -3 0 -245z"/>
<path d="M650 600 c0 -12 -10 -25 -25 -32 -28 -12 -45 -54 -35 -83 4 -11 26
-31 50 -45 54 -31 69 -54 54 -77 -8 -13 -25 -18 -58 -18 -54 0 -64 -16 -18
-30 21 -6 32 -15 32 -27 0 -10 5 -18 10 -18 6 0 10 9 10 20 0 11 5 20 10 20
22 0 50 41 50 74 0 36 -15 53 -79 88 -57 31 -31 86 34 74 27 -5 35 -4 35 7 0
8 -11 18 -25 21 -16 4 -25 13 -25 26 0 11 -4 20 -10 20 -5 0 -10 -9 -10 -20z"/>
</g>
</svg>
